<svg width="6" height="15" viewBox="0 0 6 15" fill="none" xmlns="http://www.w3.org/2000/svg">
<path d="M0.531475 14.2558C0.461933 14.2563 0.392995 14.2413 0.328615 14.2118C0.264234 14.1822 0.205678 14.1387 0.156303 14.0836C0.106776 14.0284 0.0674653 13.9627 0.0406386 13.8904C0.0138119 13.818 0 13.7404 0 13.662C0 13.5836 0.0138119 13.5059 0.0406386 13.4336C0.0674653 13.3612 0.106776 13.2955 0.156303 13.2403L4.47342 8.38819C4.77028 8.05413 4.93703 7.60129 4.93703 7.12914C4.93703 6.65699 4.77028 6.20415 4.47342 5.87009L0.156303 1.01799C0.0568013 0.906154 0.000901787 0.754477 0.000901787 0.596322C0.000901787 0.438168 0.0568013 0.286491 0.156303 0.174659C0.255805 0.0628266 0.390758 0 0.531475 0C0.672192 0 0.807145 0.0628266 0.906647 0.174659L5.22377 5.02676C5.46981 5.3026 5.66502 5.63028 5.79821 5.99104C5.93141 6.3518 5.99997 6.73855 5.99997 7.12914C5.99997 7.51973 5.93141 7.90648 5.79821 8.26724C5.66502 8.628 5.46981 8.95568 5.22377 9.23152L0.906647 14.0836C0.857272 14.1387 0.798716 14.1822 0.734335 14.2118C0.669955 14.2413 0.601017 14.2563 0.531475 14.2558Z" fill="#E4001C"/>
</svg>
